# MagicaVoxel @ Ephtracy

# group
o 

# material
mtllib Target.mtl
usemtl palette

# normals
vn -1 0 0
vn 1 0 0
vn 0 0 1
vn 0 0 -1
vn 0 -1 0
vn 0 1 0

# texcoords
vt 0.822266 0.5
vt 0.841797 0.5
vt 0.958984 0.5

# verts
v -0.5 0.2 -0.4
v -0.5 0.2 -0.5
v -0.5 0.8 -0.4
v -0.5 0.8 -0.5
v -0.4 0.1 -0.4
v -0.4 0.1 -0.5
v -0.4 0.2 -0.4
v -0.4 0.2 -0.5
v -0.4 0.8 -0.4
v -0.4 0.8 -0.5
v -0.4 0.9 -0.4
v -0.4 0.9 -0.5
v -0.3 0 -0.4
v -0.3 0 -0.5
v -0.3 0.1 -0.4
v -0.3 0.1 -0.5
v -0.3 0.9 -0.4
v -0.3 0.9 -0.5
v -0.3 1 -0.4
v -0.3 1 -0.5
v 0.3 0 -0.4
v 0.3 0 -0.5
v 0.3 0.1 -0.4
v 0.3 0.1 -0.5
v 0.3 0.9 -0.4
v 0.3 0.9 -0.5
v 0.3 1 -0.4
v 0.3 1 -0.5
v 0.4 0.1 -0.4
v 0.4 0.1 -0.5
v 0.4 0.2 -0.4
v 0.4 0.2 -0.5
v 0.4 0.8 -0.4
v 0.4 0.8 -0.5
v 0.4 0.9 -0.4
v 0.4 0.9 -0.5
v 0.5 0.2 -0.4
v 0.5 0.2 -0.5
v 0.5 0.8 -0.4
v 0.5 0.8 -0.5
v -0.5 0.2 -0.4
v -0.5 0.8 -0.4
v -0.4 0.1 -0.4
v -0.4 0.2 -0.4
v -0.4 0.3 -0.4
v -0.4 0.7 -0.4
v -0.4 0.8 -0.4
v -0.4 0.9 -0.4
v -0.3 0 -0.4
v -0.3 0.1 -0.4
v -0.3 0.2 -0.4
v -0.3 0.3 -0.4
v -0.3 0.4 -0.4
v -0.3 0.6 -0.4
v -0.3 0.7 -0.4
v -0.3 0.8 -0.4
v -0.3 0.9 -0.4
v -0.3 1 -0.4
v -0.2 0.1 -0.4
v -0.2 0.2 -0.4
v -0.2 0.3 -0.4
v -0.2 0.4 -0.4
v -0.2 0.6 -0.4
v -0.2 0.7 -0.4
v -0.2 0.8 -0.4
v -0.2 0.9 -0.4
v -0.1 0.2 -0.4
v -0.1 0.3 -0.4
v -0.1 0.4 -0.4
v -0.1 0.6 -0.4
v -0.1 0.7 -0.4
v -0.1 0.8 -0.4
v 0.1 0.2 -0.4
v 0.1 0.3 -0.4
v 0.1 0.4 -0.4
v 0.1 0.6 -0.4
v 0.1 0.7 -0.4
v 0.1 0.8 -0.4
v 0.2 0.1 -0.4
v 0.2 0.2 -0.4
v 0.2 0.3 -0.4
v 0.2 0.4 -0.4
v 0.2 0.6 -0.4
v 0.2 0.7 -0.4
v 0.2 0.8 -0.4
v 0.2 0.9 -0.4
v 0.3 0 -0.4
v 0.3 0.1 -0.4
v 0.3 0.2 -0.4
v 0.3 0.3 -0.4
v 0.3 0.4 -0.4
v 0.3 0.6 -0.4
v 0.3 0.7 -0.4
v 0.3 0.8 -0.4
v 0.3 0.9 -0.4
v 0.3 1 -0.4
v 0.4 0.1 -0.4
v 0.4 0.2 -0.4
v 0.4 0.3 -0.4
v 0.4 0.7 -0.4
v 0.4 0.8 -0.4
v 0.4 0.9 -0.4
v 0.5 0.2 -0.4
v 0.5 0.8 -0.4
v -0.5 0.2 -0.5
v -0.5 0.8 -0.5
v -0.4 0.1 -0.5
v -0.4 0.2 -0.5
v -0.4 0.3 -0.5
v -0.4 0.7 -0.5
v -0.4 0.8 -0.5
v -0.4 0.9 -0.5
v -0.3 0 -0.5
v -0.3 0.1 -0.5
v -0.3 0.2 -0.5
v -0.3 0.3 -0.5
v -0.3 0.4 -0.5
v -0.3 0.6 -0.5
v -0.3 0.7 -0.5
v -0.3 0.8 -0.5
v -0.3 0.9 -0.5
v -0.3 1 -0.5
v -0.2 0.1 -0.5
v -0.2 0.2 -0.5
v -0.2 0.3 -0.5
v -0.2 0.4 -0.5
v -0.2 0.6 -0.5
v -0.2 0.7 -0.5
v -0.2 0.8 -0.5
v -0.2 0.9 -0.5
v -0.1 0.2 -0.5
v -0.1 0.3 -0.5
v -0.1 0.4 -0.5
v -0.1 0.6 -0.5
v -0.1 0.7 -0.5
v -0.1 0.8 -0.5
v 0.1 0.2 -0.5
v 0.1 0.3 -0.5
v 0.1 0.4 -0.5
v 0.1 0.6 -0.5
v 0.1 0.7 -0.5
v 0.1 0.8 -0.5
v 0.2 0.1 -0.5
v 0.2 0.2 -0.5
v 0.2 0.3 -0.5
v 0.2 0.4 -0.5
v 0.2 0.6 -0.5
v 0.2 0.7 -0.5
v 0.2 0.8 -0.5
v 0.2 0.9 -0.5
v 0.3 0 -0.5
v 0.3 0.1 -0.5
v 0.3 0.2 -0.5
v 0.3 0.3 -0.5
v 0.3 0.4 -0.5
v 0.3 0.6 -0.5
v 0.3 0.7 -0.5
v 0.3 0.8 -0.5
v 0.3 0.9 -0.5
v 0.3 1 -0.5
v 0.4 0.1 -0.5
v 0.4 0.2 -0.5
v 0.4 0.3 -0.5
v 0.4 0.7 -0.5
v 0.4 0.8 -0.5
v 0.4 0.9 -0.5
v 0.5 0.2 -0.5
v 0.5 0.8 -0.5
v -0.3 0 -0.4
v 0.3 0 -0.4
v -0.3 0 -0.5
v 0.3 0 -0.5
v -0.4 0.1 -0.4
v -0.3 0.1 -0.4
v 0.3 0.1 -0.4
v 0.4 0.1 -0.4
v -0.4 0.1 -0.5
v -0.3 0.1 -0.5
v 0.3 0.1 -0.5
v 0.4 0.1 -0.5
v -0.5 0.2 -0.4
v -0.4 0.2 -0.4
v 0.4 0.2 -0.4
v 0.5 0.2 -0.4
v -0.5 0.2 -0.5
v -0.4 0.2 -0.5
v 0.4 0.2 -0.5
v 0.5 0.2 -0.5
v -0.5 0.8 -0.4
v -0.4 0.8 -0.4
v 0.4 0.8 -0.4
v 0.5 0.8 -0.4
v -0.5 0.8 -0.5
v -0.4 0.8 -0.5
v 0.4 0.8 -0.5
v 0.5 0.8 -0.5
v -0.4 0.9 -0.4
v -0.3 0.9 -0.4
v 0.3 0.9 -0.4
v 0.4 0.9 -0.4
v -0.4 0.9 -0.5
v -0.3 0.9 -0.5
v 0.3 0.9 -0.5
v 0.4 0.9 -0.5
v -0.3 1 -0.4
v 0.3 1 -0.4
v -0.3 1 -0.5
v 0.3 1 -0.5

# faces
f 3/3/1 2/3/1 1/3/1
f 4/3/1 2/3/1 3/3/1
f 7/3/1 6/3/1 5/3/1
f 8/3/1 6/3/1 7/3/1
f 11/3/1 10/3/1 9/3/1
f 12/3/1 10/3/1 11/3/1
f 15/3/1 14/3/1 13/3/1
f 16/3/1 14/3/1 15/3/1
f 19/3/1 18/3/1 17/3/1
f 20/3/1 18/3/1 19/3/1
f 21/3/2 22/3/2 23/3/2
f 23/3/2 22/3/2 24/3/2
f 25/3/2 26/3/2 27/3/2
f 27/3/2 26/3/2 28/3/2
f 29/3/2 30/3/2 31/3/2
f 31/3/2 30/3/2 32/3/2
f 33/3/2 34/3/2 35/3/2
f 35/3/2 34/3/2 36/3/2
f 37/3/2 38/3/2 39/3/2
f 39/3/2 38/3/2 40/3/2
f 44/3/3 42/3/3 41/3/3
f 45/3/3 42/3/3 44/3/3
f 46/3/3 42/3/3 45/3/3
f 47/3/3 42/3/3 46/3/3
f 50/3/3 44/3/3 43/3/3
f 50/3/3 45/3/3 44/3/3
f 51/3/3 45/3/3 50/3/3
f 52/1/3 46/1/3 45/1/3
f 52/3/3 45/3/3 51/3/3
f 53/1/3 46/1/3 52/1/3
f 54/1/3 46/1/3 53/1/3
f 55/3/3 48/3/3 47/3/3
f 55/1/3 46/1/3 54/1/3
f 55/3/3 47/3/3 46/3/3
f 56/3/3 48/3/3 55/3/3
f 57/3/3 48/3/3 56/3/3
f 59/3/3 51/3/3 50/3/3
f 59/3/3 50/3/3 49/3/3
f 60/1/3 53/1/3 52/1/3
f 60/3/3 51/3/3 59/3/3
f 60/1/3 52/1/3 51/1/3
f 61/1/3 53/1/3 60/1/3
f 62/2/3 54/2/3 53/2/3
f 62/1/3 53/1/3 61/1/3
f 63/1/3 56/1/3 55/1/3
f 63/2/3 54/2/3 62/2/3
f 63/1/3 55/1/3 54/1/3
f 64/1/3 56/1/3 63/1/3
f 65/3/3 58/3/3 57/3/3
f 65/1/3 56/1/3 64/1/3
f 65/3/3 57/3/3 56/3/3
f 66/3/3 58/3/3 65/3/3
f 67/1/3 61/1/3 60/1/3
f 67/1/3 60/1/3 59/1/3
f 68/2/3 62/2/3 61/2/3
f 68/1/3 61/1/3 67/1/3
f 69/3/3 63/3/3 62/3/3
f 69/2/3 62/2/3 68/2/3
f 70/2/3 64/2/3 63/2/3
f 70/3/3 63/3/3 69/3/3
f 71/1/3 66/1/3 65/1/3
f 71/2/3 64/2/3 70/2/3
f 71/1/3 65/1/3 64/1/3
f 72/1/3 66/1/3 71/1/3
f 73/2/3 68/2/3 67/2/3
f 73/1/3 67/1/3 59/1/3
f 74/3/3 69/3/3 68/3/3
f 74/2/3 68/2/3 73/2/3
f 74/3/3 70/3/3 69/3/3
f 74/3/3 71/3/3 70/3/3
f 75/3/3 71/3/3 74/3/3
f 76/3/3 71/3/3 75/3/3
f 77/2/3 72/2/3 71/2/3
f 77/3/3 71/3/3 76/3/3
f 78/1/3 66/1/3 72/1/3
f 78/2/3 72/2/3 77/2/3
f 79/3/3 59/3/3 49/3/3
f 79/1/3 73/1/3 59/1/3
f 79/1/3 74/1/3 73/1/3
f 80/1/3 74/1/3 79/1/3
f 81/2/3 75/2/3 74/2/3
f 81/1/3 74/1/3 80/1/3
f 82/3/3 76/3/3 75/3/3
f 82/2/3 75/2/3 81/2/3
f 83/2/3 77/2/3 76/2/3
f 83/3/3 76/3/3 82/3/3
f 84/1/3 78/1/3 77/1/3
f 84/2/3 77/2/3 83/2/3
f 85/1/3 66/1/3 78/1/3
f 85/1/3 78/1/3 84/1/3
f 86/3/3 58/3/3 66/3/3
f 86/1/3 66/1/3 85/1/3
f 87/3/3 80/3/3 79/3/3
f 87/3/3 79/3/3 49/3/3
f 88/3/3 80/3/3 87/3/3
f 89/1/3 82/1/3 81/1/3
f 89/3/3 80/3/3 88/3/3
f 89/1/3 81/1/3 80/1/3
f 90/1/3 82/1/3 89/1/3
f 91/2/3 83/2/3 82/2/3
f 91/1/3 82/1/3 90/1/3
f 92/1/3 85/1/3 84/1/3
f 92/2/3 83/2/3 91/2/3
f 92/1/3 84/1/3 83/1/3
f 93/1/3 85/1/3 92/1/3
f 94/3/3 86/3/3 85/3/3
f 94/1/3 85/1/3 93/1/3
f 95/3/3 58/3/3 86/3/3
f 95/3/3 86/3/3 94/3/3
f 96/3/3 58/3/3 95/3/3
f 97/3/3 89/3/3 88/3/3
f 97/3/3 90/3/3 89/3/3
f 98/3/3 90/3/3 97/3/3
f 99/1/3 91/1/3 90/1/3
f 99/3/3 90/3/3 98/3/3
f 99/1/3 92/1/3 91/1/3
f 99/1/3 93/1/3 92/1/3
f 100/3/3 95/3/3 94/3/3
f 100/1/3 93/1/3 99/1/3
f 100/3/3 94/3/3 93/3/3
f 101/3/3 95/3/3 100/3/3
f 102/3/3 95/3/3 101/3/3
f 103/3/3 99/3/3 98/3/3
f 103/3/3 101/3/3 100/3/3
f 103/3/3 100/3/3 99/3/3
f 104/3/3 101/3/3 103/3/3
f 105/3/4 106/3/4 108/3/4
f 108/3/4 106/3/4 109/3/4
f 109/3/4 106/3/4 110/3/4
f 110/3/4 106/3/4 111/3/4
f 107/3/4 108/3/4 114/3/4
f 108/3/4 109/3/4 114/3/4
f 114/3/4 109/3/4 115/3/4
f 109/1/4 110/1/4 116/1/4
f 115/3/4 109/3/4 116/3/4
f 116/1/4 110/1/4 117/1/4
f 117/1/4 110/1/4 118/1/4
f 111/3/4 112/3/4 119/3/4
f 118/1/4 110/1/4 119/1/4
f 110/3/4 111/3/4 119/3/4
f 119/3/4 112/3/4 120/3/4
f 120/3/4 112/3/4 121/3/4
f 114/3/4 115/3/4 123/3/4
f 113/3/4 114/3/4 123/3/4
f 116/1/4 117/1/4 124/1/4
f 123/3/4 115/3/4 124/3/4
f 115/1/4 116/1/4 124/1/4
f 124/1/4 117/1/4 125/1/4
f 117/2/4 118/2/4 126/2/4
f 125/1/4 117/1/4 126/1/4
f 119/1/4 120/1/4 127/1/4
f 126/2/4 118/2/4 127/2/4
f 118/1/4 119/1/4 127/1/4
f 127/1/4 120/1/4 128/1/4
f 121/3/4 122/3/4 129/3/4
f 128/1/4 120/1/4 129/1/4
f 120/3/4 121/3/4 129/3/4
f 129/3/4 122/3/4 130/3/4
f 124/1/4 125/1/4 131/1/4
f 123/1/4 124/1/4 131/1/4
f 125/2/4 126/2/4 132/2/4
f 131/1/4 125/1/4 132/1/4
f 126/3/4 127/3/4 133/3/4
f 132/2/4 126/2/4 133/2/4
f 127/2/4 128/2/4 134/2/4
f 133/3/4 127/3/4 134/3/4
f 129/1/4 130/1/4 135/1/4
f 134/2/4 128/2/4 135/2/4
f 128/1/4 129/1/4 135/1/4
f 135/1/4 130/1/4 136/1/4
f 131/2/4 132/2/4 137/2/4
f 123/1/4 131/1/4 137/1/4
f 132/3/4 133/3/4 138/3/4
f 137/2/4 132/2/4 138/2/4
f 133/3/4 134/3/4 138/3/4
f 134/3/4 135/3/4 138/3/4
f 138/3/4 135/3/4 139/3/4
f 139/3/4 135/3/4 140/3/4
f 135/2/4 136/2/4 141/2/4
f 140/3/4 135/3/4 141/3/4
f 136/1/4 130/1/4 142/1/4
f 141/2/4 136/2/4 142/2/4
f 113/3/4 123/3/4 143/3/4
f 123/1/4 137/1/4 143/1/4
f 137/1/4 138/1/4 143/1/4
f 143/1/4 138/1/4 144/1/4
f 138/2/4 139/2/4 145/2/4
f 144/1/4 138/1/4 145/1/4
f 139/3/4 140/3/4 146/3/4
f 145/2/4 139/2/4 146/2/4
f 140/2/4 141/2/4 147/2/4
f 146/3/4 140/3/4 147/3/4
f 141/1/4 142/1/4 148/1/4
f 147/2/4 141/2/4 148/2/4
f 142/1/4 130/1/4 149/1/4
f 148/1/4 142/1/4 149/1/4
f 130/3/4 122/3/4 150/3/4
f 149/1/4 130/1/4 150/1/4
f 143/3/4 144/3/4 151/3/4
f 113/3/4 143/3/4 151/3/4
f 151/3/4 144/3/4 152/3/4
f 145/1/4 146/1/4 153/1/4
f 152/3/4 144/3/4 153/3/4
f 144/1/4 145/1/4 153/1/4
f 153/1/4 146/1/4 154/1/4
f 146/2/4 147/2/4 155/2/4
f 154/1/4 146/1/4 155/1/4
f 148/1/4 149/1/4 156/1/4
f 155/2/4 147/2/4 156/2/4
f 147/1/4 148/1/4 156/1/4
f 156/1/4 149/1/4 157/1/4
f 149/3/4 150/3/4 158/3/4
f 157/1/4 149/1/4 158/1/4
f 150/3/4 122/3/4 159/3/4
f 158/3/4 150/3/4 159/3/4
f 159/3/4 122/3/4 160/3/4
f 152/3/4 153/3/4 161/3/4
f 153/3/4 154/3/4 161/3/4
f 161/3/4 154/3/4 162/3/4
f 154/1/4 155/1/4 163/1/4
f 162/3/4 154/3/4 163/3/4
f 155/1/4 156/1/4 163/1/4
f 156/1/4 157/1/4 163/1/4
f 158/3/4 159/3/4 164/3/4
f 163/1/4 157/1/4 164/1/4
f 157/3/4 158/3/4 164/3/4
f 164/3/4 159/3/4 165/3/4
f 165/3/4 159/3/4 166/3/4
f 162/3/4 163/3/4 167/3/4
f 164/3/4 165/3/4 167/3/4
f 163/3/4 164/3/4 167/3/4
f 167/3/4 165/3/4 168/3/4
f 171/3/5 170/3/5 169/3/5
f 172/3/5 170/3/5 171/3/5
f 177/3/5 174/3/5 173/3/5
f 178/3/5 174/3/5 177/3/5
f 179/3/5 176/3/5 175/3/5
f 180/3/5 176/3/5 179/3/5
f 185/3/5 182/3/5 181/3/5
f 186/3/5 182/3/5 185/3/5
f 187/3/5 184/3/5 183/3/5
f 188/3/5 184/3/5 187/3/5
f 189/3/6 190/3/6 193/3/6
f 193/3/6 190/3/6 194/3/6
f 191/3/6 192/3/6 195/3/6
f 195/3/6 192/3/6 196/3/6
f 197/3/6 198/3/6 201/3/6
f 201/3/6 198/3/6 202/3/6
f 199/3/6 200/3/6 203/3/6
f 203/3/6 200/3/6 204/3/6
f 205/3/6 206/3/6 207/3/6
f 207/3/6 206/3/6 208/3/6
